<?xml version="1.0" encoding="UTF-8" standalone="no"?> <!-- Created with Vectornator for iOS (http://vectornator.io/) --><!DOCTYPE svg PUBLIC "-//W3C//DTD SVG 1.1//EN" "http://www.w3.org/Graphics/SVG/1.1/DTD/svg11.dtd">
<svg style="fill-rule:evenodd;clip-rule:evenodd;stroke-linecap:round;stroke-linejoin:round;" xmlns:vectornator="http://vectornator.io" xmlns:xlink="http://www.w3.org/1999/xlink" xmlns="http://www.w3.org/2000/svg" xml:space="preserve" version="1.1" viewBox="0 0 1080 720">
<metadata>
<vectornator:setting key="DisplayWhiteBackground" value="0"/>
<vectornator:setting key="RulersVisible" value="1"/>
<vectornator:setting key="SnapToEdges" value="0"/>
<vectornator:setting key="Units" value="Pixels"/>
<vectornator:setting key="DynamicGuides" value="0"/>
<vectornator:setting key="SnapToPoints" value="0"/>
<vectornator:setting key="CMYKEnabledKey" value="0"/>
<vectornator:setting key="SnapToGrid" value="0"/>
<vectornator:setting key="SnapToGuides" value="1"/>
<vectornator:setting key="ShowGrid" value="1"/>
<vectornator:setting key="GridSpacing" value="36"/>
</metadata>
<defs/>
<g id="Layer 1" vectornator:layerName="Layer 1">
<path stroke="#000000" stroke-width="4.55" d="M276.13+123.166C270.085+133.438+263.281+142.967+255.304+151.818C252.535+154.891+243.119+161.358+242.143+163.861L240.204+161.819C239.982+160.605+272.322+125.377+274.212+122.471" fill="#000000" stroke-linecap="butt" opacity="1" stroke-linejoin="round"/>
<path stroke="#000000" stroke-width="4.55" d="M281.637+146.26C287.506+144.831+330.218+132.227+327.543+141.742L326.874+139.548C330.449+144.709+287.8+147.514+282.086+148.559" fill="#000000" stroke-linecap="butt" opacity="1" stroke-linejoin="round"/>
<path stroke="#000000" stroke-width="4.55" d="M257.558+185.122C268.434+180.643+319.02+158.892+329.905+162.723L330.635+165.119C307.636+173.906+281.806+180.082+257.785+186.583" fill="#000000" stroke-linecap="butt" opacity="1" stroke-linejoin="round"/>
<path stroke="#000000" stroke-width="4.55" d="M299.988+108.91C301.651+121.951+302.092+124.65+303.362+141.586C304.071+151.047+314.328+213.949+294.359+207.106L294.399+205.564C308.193+201.62+298.116+132.486+297.11+118.27C296.911+115.449+296.518+112.645+296.222+109.833" fill="#000000" stroke-linecap="butt" opacity="1" stroke-linejoin="round"/>
<path stroke="#000000" stroke-width="4.55" d="M206.379+240.669C249.478+236.633+289.761+220.784+332.032+212.158C340.949+210.339+380.948+198.743+389.115+201.781C391.921+202.825+387.603+207.581+387.058+210.525C386.611+212.935+382.236+211.631+381.184+211.344L379.572+206.99C380.034+206.159+386.499+200.19+387.276+202.055C388.439+204.842+392.201+210.805+389.183+210.912C370.628+211.573+351.638+215.963+333.181+218.358C290.228+223.931+249.198+239.55+205.987+241.918" fill="#000000" stroke-linecap="butt" opacity="1" stroke-linejoin="round"/>
<path stroke="#000000" stroke-width="4.55" d="M444.429+115.812C432.281+133.196+419.418+155.172+400.734+167.313L400.05+166.593C413.324+148.951+428.794+133.937+442.03+115.312" fill="#000000" stroke-linecap="butt" opacity="1" stroke-linejoin="round"/>
<path stroke="#000000" stroke-width="4.55" d="M429.109+148.773C433.551+147.191+482.423+126.325+485.205+126.863C486.151+127.046+485.144+128.831+484.768+129.717L483.993+129.171C487.542+128.509+468.842+137.19+465+138.594C453.288+142.873+441.836+147.389+429.932+151.232" fill="#000000" stroke-linecap="butt" opacity="1" stroke-linejoin="round"/>
<path stroke="#000000" stroke-width="4.55" d="M399.642+196.033C406.789+192.879+413.905+189.654+421.083+186.571C433.118+181.402+478.737+168.593+482.323+158.692L483.705+158.728C485.864+165.81+467.857+171.032+463.621+172.785C442.781+181.414+421.757+190.279+400.787+198.908" fill="#000000" stroke-linecap="butt" opacity="1" stroke-linejoin="round"/>
<path stroke="#000000" stroke-width="4.55" d="M459.456+87.9009C462.462+126.805+458.41+165.577+457.968+204.521C457.811+218.325+457.607+232.152+456.805+245.936C456.344+253.857+453.149+262.469+453.138+262.46C449.991+259.904+450.436+260.033+450.909+257.382L452.639+257.427C452.961+259.987+453.464+259.475+450.19+260.889C447.974+261.846+451.214+256.142+451.262+253.729C451.369+248.438+451.099+243.146+451.16+237.855C451.288+226.627+451.533+215.457+451.983+204.237C453.543+165.345+460.494+126.869+457.734+87.8564" fill="#000000" stroke-linecap="butt" opacity="1" stroke-linejoin="round"/>
<path stroke="#000000" stroke-width="4.55" d="M528.021+98.653C523.976+107.281+519.736+115.82+515.884+124.536C510.435+136.864+533.449+126.946+536.552+125.413C545.614+120.934+589.871+97.767+597.934+112.06C603.925+122.679+601.847+141.124+602.46+152.555C603.466+171.341+611.569+204.334+601.922+221.927C590.275+243.166+560.607+217.003+554.489+203.897L554.489+203.897C560.025+213.411+589.772+239.018+598.93+221.205C603.151+212.997+600.381+198.726+600.317+189.994C600.161+168.542+606.208+133.187+596.328+113.585C591.078+103.171+539.176+126.938+531.035+129.614C525.947+131.286+508.764+135.728+514.195+123.728C518.152+114.986+522.462+106.407+526.595+97.7465" fill="#000000" stroke-linecap="butt" opacity="1" stroke-linejoin="round"/>
<path stroke="#000000" stroke-width="4.55" d="M550.918+140.96C540.345+153.271+530.553+164.208+518.86+175.152C517.635+176.298+505.062+187.727+506.112+186.166L506.112+186.166C504.56+187.181+519.423+171.19+522.732+168.07C532.142+159.195+540.671+149.413+549.138+139.633" fill="#000000" stroke-linecap="butt" opacity="1" stroke-linejoin="round"/>
<path stroke="#000000" stroke-width="4.55" d="M574.835+153.26C560.96+165.702+546.849+179.618+531.414+190.44C516.423+200.95+495.254+210.467+481.712+221.552L481.07+221.535C477.533+213.829+501.62+204.94+505.96+202.416C530.957+187.877+551.402+170.549+573.424+151.775" fill="#000000" stroke-linecap="butt" opacity="1" stroke-linejoin="round"/>
<path stroke="#000000" stroke-width="4.55" d="M748.933+228.584C735.326+244.346+732.004+250.023+716.387+257.908C705.308+263.503+670.716+279.036+664.352+275.441C649.777+267.206+664.2+238.775+668.234+228.481C680.542+197.074+725.545+183.216+756.388+190.395C804.589+201.613+820.997+270.296+790.899+306.364C769.48+332.031+733.305+344.879+702.786+355.516L701.236+351.691C731.704+340.878+778.052+324.053+794.814+293.336C812.789+260.398+788.661+197.586+747.845+194.472C725.992+192.805+694.74+200.183+680.608+218.468C668.01+234.768+667.075+265.932+664.394+270.754C663.658+272.078+667.277+269.336+668.777+269.55C669.5+269.654+673.403+268.614+674.979+268.396C683.133+267.271+690.883+266.153+698.53+262.488C705.519+259.138+712.637+256.037+719.501+252.394C731.894+245.816+734.187+240.205+745.829+227.024" fill="#000000" stroke-linecap="butt" opacity="1" stroke-linejoin="round"/>
<path stroke="#000000" stroke-width="4.55" d="M500.537+434.086C502.342+440.525+507.801+461.639+509.833+443.867L509.833+443.867C511.051+464.541+498.351+442.063+496.42+434.749" fill="#000000" stroke-linecap="butt" opacity="1" stroke-linejoin="round"/>
<path stroke="#000000" stroke-width="4.55" d="M522.431+407.812C533.312+402.77+571.819+382.488+583.705+396.033C591.536+404.957+584.357+467.018+568.541+463.393L568.557+462.781C575.581+461.122+588.923+401.964+580.962+396.107C570.285+388.253+532.175+405.669+523.464+409.789" fill="#000000" stroke-linecap="butt" opacity="1" stroke-linejoin="round"/>
<path stroke="#000000" stroke-width="4.55" d="M541.451+428.71C549.172+427.023+569.628+422.295+565.161+428.815L565.161+428.815C567.427+422.875+543.826+432.274+542.382+432.602" fill="#000000" stroke-linecap="butt" opacity="1" stroke-linejoin="round"/>
<path stroke="#000000" stroke-width="4.55" d="M520.525+469.012C533.759+464.681+547.153+460.624+560.699+457.398C563.225+456.796+575.876+454.507+574.196+455.14L574.292+455.456C576.625+456.368+558.88+462.162+556.462+463.144C545.292+467.68+533.608+470.568+522.124+474.256" fill="#000000" stroke-linecap="butt" opacity="1" stroke-linejoin="round"/>
<path stroke="#000000" stroke-width="4.55" d="M495.026+536.476C496.518+547.343+495.278+584.316+501.15+562.048L501.42+562.096C499.866+595.324+491.051+542.558+490.536+537.173" fill="#000000" stroke-linecap="butt" opacity="1" stroke-linejoin="round"/>
<path stroke="#000000" stroke-width="4.55" d="M536.669+494.03C544.255+490.698+551.607+486.754+559.456+484.102C609.356+467.242+600.402+497.814+602.984+538.311C603.544+547.093+607.291+602.229+598.724+606.401C592.212+609.572+590.777+595.01+589.467+591.287L589.846+591.141C591.992+594.727+594.246+597.316+596.667+600.456C596.887+600.743+593.828+602.41+593.907+603.582C594.063+605.89+595.315+599.166+595.792+596.902C596.126+595.31+596.207+593.667+596.614+592.092C598.301+585.559+598.962+580.802+598.665+573.997C597.745+552.887+594.705+532.898+595.541+511.514C595.801+504.854+599.018+491.302+594.624+485.141C586.328+473.508+544.69+493.474+537.723+496.451" fill="#000000" stroke-linecap="butt" opacity="1" stroke-linejoin="round"/>
<path stroke="#000000" stroke-width="4.55" d="M553.326+520.767C557.277+519.847+561.171+518.637+565.178+518.006C579.645+515.727+549.179+538.633+548.888+538.884C548.526+539.196+538.878+547.87+542.12+548.761C547.866+550.339+585.482+535.834+568.22+546.709L568.22+546.709C585.81+535.627+543.728+564.497+539.291+548.119C538.547+545.369+572.459+520.928+566.517+522.791C562.643+524.006+558.838+525.431+554.999+526.751" fill="#000000" stroke-linecap="butt" opacity="1" stroke-linejoin="round"/>
<path stroke="#000000" stroke-width="4.55" d="M522.947+582.474C522.314+583.265+518.611+587.372+519.079+588.834C519.633+590.567+521.681+586.223+523.27+585.338C525.026+584.36+527.085+584.071+528.962+583.353C536.331+580.536+543.622+577.519+550.941+574.573C572.26+565.992+594.63+558.003+616.835+551.984L618.146+554.967C595.239+570.975+564.73+578.005+538.277+586C530.119+588.466+507.542+593.625+520.16+579.343" fill="#000000" stroke-linecap="butt" opacity="1" stroke-linejoin="round"/>
<path stroke="#000000" stroke-width="4.55" d="M690.178+449.245C688.738+473.678+687.292+498.111+685.858+522.544C685.447+529.528+685.4+537.163+684.547+544.22C684.479+544.778+679.463+560.159+679.122+555.678C678.942+553.319+682.308+549.205+682.391+545.995L682.391+545.995C682.306+549.254+682.308+555.756+678.318+556.878C678.28+556.889+678.339+552.636+678.334+552.458C678.26+549.652+678.081+546.849+677.889+544.048C677.426+537.324+677.06+527.959+677.713+521.801C680.291+497.458+683.861+473.23+686.935+448.944" fill="#000000" stroke-linecap="butt" opacity="1" stroke-linejoin="round"/>
<path stroke="#000000" stroke-width="4.55" d="M713.402+388.157C719.953+386.854+724.72+385.782+731.19+386.791C779.689+394.352+725.24+413.257+717.028+429.367C709.928+443.295+737.406+440.993+736.96+451.807C736.431+464.672+703.698+485.306+691.529+486.986L690.981+485.816C692.942+479.837+725.84+464.318+732.419+456.139C738.564+448.5+713.375+442.884+713.079+432.862C712.497+413.25+782.014+397.848+728.693+389.554C723.108+388.685+720.389+389.086+714.445+389.255" fill="#000000" stroke-linecap="butt" opacity="1" stroke-linejoin="round"/>
<path stroke="#000000" stroke-width="4.55" d="M813.832+385.934C801.849+396.497+788.42+404.925+775.164+413.754C771.15+416.428+756.447+420.628+759.529+419.185L759.529+419.185C758.414+419.707+772.485+409.476+776.119+407.097C787.94+399.359+799.986+392.41+810.792+383.132" fill="#000000" stroke-linecap="butt" opacity="1" stroke-linejoin="round"/>
<path stroke="#000000" stroke-width="4.55" d="M793.57+401.123C805.847+400.198+818.168+407.86+830.526+410.088C852.949+414.129+878.145+410.225+899.905+417.033L900.021+418.826C877.465+432.881+820.096+410.662+793.412+407.259" fill="#000000" stroke-linecap="butt" opacity="1" stroke-linejoin="round"/>
<path stroke="#000000" stroke-width="4.55" d="M769.856+452.819C775.863+452.068+822.156+443.852+823.707+444.544C825.584+445.382+823.965+446.114+823.004+447.395L822.807+446.747C828.83+448.483+807.44+453.491+805.362+453.84C793.006+455.915+779.329+457.044+766.928+455.6" fill="#000000" stroke-linecap="butt" opacity="1" stroke-linejoin="round"/>
<path stroke="#000000" stroke-width="4.55" d="M776.713+488.591C777.098+491.084+777.877+503.771+782.927+503.131L783.057+503.712C775.532+508.875+773.695+493.791+772.915+489.749" fill="#000000" stroke-linecap="butt" opacity="1" stroke-linejoin="round"/>
<path stroke="#000000" stroke-width="4.55" d="" fill="#000000" stroke-linecap="butt" opacity="1" stroke-linejoin="round"/>
<path stroke="#000000" stroke-width="4.55" d="M844.048+483.138C826.692+502.053+811.925+506.1+788.23+513.324L788.23+513.324C808.158+507.248+824.17+495.998+839.008+481.556" fill="#000000" stroke-linecap="butt" opacity="1" stroke-linejoin="round"/>
<path stroke="#000000" stroke-width="4.55" d="M755.554+527.809C787.796+520.12+816.963+516.018+849.625+513.201C858.526+512.433+870.482+509.473+879.383+511.887L880.213+514.608C871.47+521.902+852.732+520.142+842.125+520.544C812.908+521.651+785.084+527.645+756.518+533.802" fill="#000000" stroke-linecap="butt" opacity="1" stroke-linejoin="round"/>
<path stroke="#000000" stroke-width="4.55" d="M804.04+487.646C805.314+493.386+804.475+490.79+806.366+495.493L803.95+496.624C800.815+492.417+802.382+494.725+799.334+489.641" fill="#000000" stroke-linecap="butt" opacity="1" stroke-linejoin="round"/>
</g>
</svg>
